<svg width="21" height="21" viewBox="0 0 21 21" fill="none" xmlns="http://www.w3.org/2000/svg">
<path d="M10.5 0C8.4233 0 6.39323 0.615814 4.66652 1.76957C2.9398 2.92332 1.59399 4.5632 0.799269 6.48182C0.00454931 8.40045 -0.203385 10.5116 0.201759 12.5484C0.606904 14.5852 1.60693 16.4562 3.07538 17.9246C4.54383 19.3931 6.41475 20.3931 8.45155 20.7982C10.4884 21.2034 12.5996 20.9955 14.5182 20.2007C16.4368 19.406 18.0767 18.0602 19.2304 16.3335C20.3842 14.6068 21 12.5767 21 10.5C20.9967 7.71623 19.8894 5.04741 17.921 3.07899C15.9526 1.11057 13.2838 0.00326926 10.5 0ZM10.5 19.7647C8.66762 19.7647 6.87638 19.2213 5.35281 18.2033C3.82924 17.1853 2.64176 15.7384 1.94053 14.0454C1.23931 12.3525 1.05584 10.4897 1.41332 8.69254C1.7708 6.89537 2.65318 5.24455 3.94887 3.94886C5.24456 2.65317 6.89537 1.77079 8.69255 1.41331C10.4897 1.05583 12.3525 1.2393 14.0455 1.94053C15.7384 2.64175 17.1853 3.82923 18.2033 5.3528C19.2213 6.87638 19.7647 8.66761 19.7647 10.5C19.762 12.9563 18.785 15.3112 17.0481 17.0481C15.3112 18.785 12.9563 19.762 10.5 19.7647ZM7 10.5C7 11.2346 7.23113 11.9506 7.66066 12.5465C8.09018 13.1424 8.69631 13.5881 9.39321 13.8204C10.0901 14.0527 10.8424 14.0598 11.5436 13.8408C12.2448 13.6218 12.8592 13.1877 13.3 12.6C13.3984 12.4689 13.5449 12.3824 13.7071 12.3593C13.8694 12.3362 14.0342 12.3786 14.1652 12.477C14.2963 12.5754 14.3829 12.7219 14.4059 12.8841C14.429 13.0464 14.3867 13.2112 14.2882 13.3422C13.6918 14.137 12.8604 14.7241 11.9118 15.0202C10.9632 15.3163 9.94544 15.3065 9.00273 14.9921C8.06003 14.6777 7.24012 14.0747 6.65912 13.2685C6.07812 12.4623 5.76548 11.4937 5.76548 10.5C5.76548 9.50625 6.07812 8.53769 6.65912 7.73148C7.24012 6.92528 8.06003 6.32229 9.00273 6.00791C9.94544 5.69353 10.9632 5.6837 11.9118 5.97981C12.8604 6.27592 13.6918 6.86296 14.2882 7.65779C14.3867 7.78884 14.429 7.95362 14.4059 8.11588C14.3829 8.27814 14.2963 8.42459 14.1652 8.52301C14.0342 8.62144 13.8694 8.66377 13.7071 8.6407C13.5449 8.61763 13.3984 8.53105 13.3 8.4C12.8592 7.81233 12.2448 7.37823 11.5436 7.1592C10.8424 6.94017 10.0901 6.94731 9.39321 7.17961C8.69631 7.4119 8.09018 7.85758 7.66066 8.45351C7.23113 9.04944 7 9.76541 7 10.5Z" fill="#5C5C5C"/>
</svg>
