<svg width="19" height="14" viewBox="0 0 19 14" fill="none" xmlns="http://www.w3.org/2000/svg">
<path opacity="0.95" d="M17.8592 0.00614483C17.7797 -0.00204828 17.6996 -0.00204828 17.62 0.00614483H1.28671C1.18202 0.00775783 1.07803 0.0234543 0.977539 0.0528115L9.40671 8.44698L17.8592 0.00614483Z" fill="#DF5B44"/>
<path opacity="0.95" d="M18.7225 0.817383L10.2292 9.27572C10.0106 9.49301 9.7149 9.61497 9.40669 9.61497C9.09847 9.61497 8.80278 9.49301 8.58419 9.27572L0.166688 0.88155C0.140811 0.976657 0.12709 1.07466 0.125854 1.17322V12.8399C0.125854 13.1493 0.248771 13.446 0.467563 13.6648C0.686356 13.8836 0.983102 14.0065 1.29252 14.0065H17.6259C17.9353 14.0065 18.232 13.8836 18.4508 13.6648C18.6696 13.446 18.7925 13.1493 18.7925 12.8399V1.17322C18.7879 1.05168 18.7643 0.93162 18.7225 0.817383ZM2.09169 12.8399H1.28085V12.0057L5.52169 7.79988L6.34419 8.62238L2.09169 12.8399ZM17.6142 12.8399H16.7975L12.545 8.62238L13.3675 7.79988L17.6084 12.0057L17.6142 12.8399Z" fill="#DF5B44"/>
</svg>
