<svg width="6" height="11" viewBox="0 0 6 11" fill="none" xmlns="http://www.w3.org/2000/svg">
<path d="M0.253122 0.270887C0.332673 0.185052 0.427317 0.116923 0.531595 0.0704302C0.635873 0.0239371 0.747721 0 0.860687 0C0.973653 0 1.0855 0.0239371 1.18978 0.0704302C1.29406 0.116923 1.3887 0.185052 1.46825 0.270887L5.74688 4.84979C5.82708 4.93493 5.89074 5.03622 5.93419 5.14781C5.97763 5.25941 6 5.37911 6 5.5C6 5.62089 5.97763 5.74059 5.93419 5.85219C5.89074 5.96378 5.82708 6.06507 5.74688 6.15021L1.46825 10.7291C1.3887 10.8149 1.29406 10.8831 1.18978 10.9296C1.0855 10.9761 0.973653 11 0.860687 11C0.747721 11 0.635873 10.9761 0.531595 10.9296C0.427317 10.8831 0.332673 10.8149 0.253122 10.7291C0.172916 10.644 0.109255 10.5427 0.0658112 10.4311C0.022367 10.3195 0 10.1998 0 10.0789C0 9.95801 0.022367 9.83832 0.0658112 9.72672C0.109255 9.61512 0.172916 9.51384 0.253122 9.4287L3.93274 5.5L0.253122 1.5713C0.172916 1.48616 0.109255 1.38488 0.0658112 1.27328C0.022367 1.16168 0 1.04199 0 0.921092C0 0.800198 0.022367 0.6805 0.0658112 0.568903C0.109255 0.457307 0.172916 0.35602 0.253122 0.270887Z" fill="#5C5C5C"/>
</svg>
