<svg width="30" height="30" viewBox="0 0 30 30" fill="none" xmlns="http://www.w3.org/2000/svg">
<path d="M14.68 9.74C13.699 9.74 12.74 10.0309 11.9244 10.5759C11.1087 11.1209 10.473 11.8956 10.0976 12.8019C9.72215 13.7082 9.62392 14.7055 9.81531 15.6676C10.0067 16.6298 10.4791 17.5136 11.1728 18.2072C11.8664 18.9009 12.7502 19.3733 13.7124 19.5647C14.6745 19.7561 15.6718 19.6579 16.5781 19.2824C17.4844 18.907 18.2591 18.2713 18.8041 17.4556C19.3491 16.64 19.64 15.681 19.64 14.7C19.64 14.0486 19.5117 13.4037 19.2624 12.8019C19.0132 12.2001 18.6478 11.6533 18.1873 11.1927C17.7267 10.7322 17.1799 10.3668 16.5781 10.1176C15.9763 9.86829 15.3314 9.74 14.68 9.74ZM29.46 20.84C29.3969 22.0743 29.1334 23.2902 28.68 24.44C28.2917 25.3994 27.7145 26.2709 26.9827 27.0027C26.2509 27.7345 25.3794 28.3117 24.42 28.7C23.2593 29.1282 22.0367 29.3646 20.8 29.4H8.56C7.32334 29.3646 6.10069 29.1282 4.94 28.7C3.94789 28.3321 3.05211 27.744 2.32 26.98C1.59483 26.2629 1.03511 25.396 0.68 24.44C0.251485 23.2801 0.0215955 22.0563 0 20.82V8.58C0.0215955 7.34369 0.251485 6.11987 0.68 4.96C1.04794 3.96789 1.63601 3.07211 2.4 2.34C3.12105 1.61972 3.9868 1.06073 4.94 0.7C6.10069 0.271786 7.32334 0.0353611 8.56 0H20.8C22.0367 0.0353611 23.2593 0.271786 24.42 0.7C25.4121 1.06794 26.3079 1.65601 27.04 2.42C27.7652 3.13709 28.3249 4.00397 28.68 4.96C29.1082 6.12069 29.3446 7.34334 29.38 8.58V14.7C29.38 18.82 29.52 19.24 29.46 20.82V20.84ZM26.26 5.96C26.0219 5.31397 25.6464 4.72728 25.1596 4.24043C24.6727 3.75357 24.086 3.37813 23.44 3.14C22.5529 2.83252 21.6187 2.68358 20.68 2.7H8.68C7.73653 2.70922 6.80214 2.88527 5.92 3.22C5.28386 3.44731 4.70339 3.80742 4.21717 4.2764C3.73095 4.74538 3.35012 5.31248 3.1 5.94C2.81061 6.83098 2.66874 7.76326 2.68 8.7V20.7C2.70092 21.6423 2.8766 22.5747 3.2 23.46C3.43813 24.106 3.81357 24.6927 4.30043 25.1796C4.78729 25.6664 5.37397 26.0419 6.02 26.28C6.87361 26.5928 7.77142 26.7684 8.68 26.8H20.68C21.6235 26.7908 22.5579 26.6147 23.44 26.28C24.086 26.0419 24.6727 25.6664 25.1596 25.1796C25.6464 24.6927 26.0219 24.106 26.26 23.46C26.5947 22.5779 26.7708 21.6435 26.78 20.7V8.7C26.7796 7.75568 26.6033 6.8197 26.26 5.94V5.96ZM14.68 22.34C13.6776 22.34 12.6851 22.1422 11.7593 21.7581C10.8335 21.3739 9.99261 20.8108 9.28476 20.1011C8.57692 19.3914 8.01605 18.549 7.63429 17.6222C7.25253 16.6954 7.05737 15.7024 7.06 14.7C7.06 13.1881 7.50859 11.7102 8.34897 10.4534C9.18936 9.19655 10.3837 8.21733 11.7809 7.63967C13.1781 7.06201 14.7153 6.91188 16.1979 7.2083C17.6804 7.50471 19.0417 8.23434 20.1094 9.30481C21.177 10.3753 21.9031 11.7385 22.1956 13.2218C22.4882 14.7051 22.334 16.2419 21.7527 17.6376C21.1714 19.0333 20.189 20.2251 18.93 21.0622C17.671 21.8992 16.1919 22.344 14.68 22.34ZM22.68 8.56C22.2379 8.5132 21.8287 8.30444 21.5314 7.97394C21.234 7.64344 21.0695 7.21458 21.0695 6.77C21.0695 6.32541 21.234 5.89656 21.5314 5.56606C21.8287 5.23556 22.2379 5.0268 22.68 4.98C23.1221 5.0268 23.5313 5.23556 23.8286 5.56606C24.126 5.89656 24.2905 6.32541 24.2905 6.77C24.2905 7.21458 24.126 7.64344 23.8286 7.97394C23.5313 8.30444 23.1221 8.5132 22.68 8.56Z" fill="#FBE8E9"/>
</svg>
