<svg width="100" height="19" viewBox="0 0 100 19" fill="none" xmlns="http://www.w3.org/2000/svg">
<path d="M8.53659 0.390137L10.4532 6.60898H16.6554L11.6377 10.4524L13.5543 16.6713L8.53659 12.8278L3.51891 16.6713L5.43549 10.4524L0.41781 6.60898H6.62L8.53659 0.390137Z" fill="#E8E00C"/>
<path d="M29.2682 0.390137L31.1848 6.60898H37.387L32.3693 10.4524L34.2859 16.6713L29.2682 12.8278L24.2506 16.6713L26.1671 10.4524L21.1495 6.60898H27.3517L29.2682 0.390137Z" fill="#E8E00C"/>
<path d="M50.0001 0.390137L51.9166 6.60898H58.1188L53.1012 10.4524L55.0177 16.6713L50.0001 12.8278L44.9824 16.6713L46.899 10.4524L41.8813 6.60898H48.0835L50.0001 0.390137Z" fill="#E8E00C"/>
<path d="M70.7317 0.390137L72.6483 6.60898H78.8505L73.8328 10.4524L75.7494 16.6713L70.7317 12.8278L65.714 16.6713L67.6306 10.4524L62.6129 6.60898H68.8151L70.7317 0.390137Z" fill="#E8E00C"/>
<path d="M91.4634 0.390137L93.38 6.60898H99.5821L94.5645 10.4524L96.4811 16.6713L91.4634 12.8278L86.4457 16.6713L88.3623 10.4524L83.3446 6.60898H89.5468L91.4634 0.390137Z" fill="#E8E00C"/>
</svg>
