<svg width="27" height="31" viewBox="0 0 27 31" fill="none" xmlns="http://www.w3.org/2000/svg">
<path fill-rule="evenodd" clip-rule="evenodd" d="M26.2609 12.4608C23.6802 12.4896 21.2754 11.7094 19.164 10.2644V20.4081C19.164 24.9164 16.078 28.7891 11.7142 29.8005C5.7608 31.1588 0.720999 26.8528 0.0853488 21.7088C-0.579351 16.5646 2.70145 12.0562 7.72995 11.0447C8.7125 10.8425 10.1904 10.8425 10.9528 11.0159V16.4489C10.7182 16.3913 10.4985 16.3334 10.2674 16.3045C8.3022 15.9577 6.39885 16.9403 5.61855 18.732C4.8383 20.5239 5.36055 22.6046 6.95 23.8185C8.2793 24.8588 9.75425 25.0032 11.257 24.3096C12.7598 23.6451 13.5675 22.4313 13.7408 20.784C13.7697 20.5529 13.7681 20.2927 13.7681 20.0326V0.525254C13.7681 -0.0237961 13.7724 0.000154211 14.3215 0.000154211H18.6275C18.9455 0.000154211 19.0612 0.0459041 19.09 0.421804C19.3211 3.77415 21.8663 6.62915 25.1319 7.0627C25.4788 7.12045 25.8504 7.14335 26.2609 7.1722V12.4608Z" fill="#FBE8E9"/>
</svg>
